<svg xmlns="http://www.w3.org/2000/svg" viewBox="0 0 48 48" fill="none">
  <!-- Body -->
  <ellipse cx="24" cy="28" rx="12" ry="9" fill="#bf94ff" opacity="0.9"/>
  <!-- Left claw arm -->
  <path d="M8 18 Q4 12 7 8 Q10 10 10 14 Q10 10 13 8 Q16 12 12 18" fill="#bf94ff"/>
  <!-- Right claw arm -->
  <path d="M40 18 Q44 12 41 8 Q38 10 38 14 Q38 10 35 8 Q32 12 36 18" fill="#bf94ff"/>
  <!-- Left leg pair -->
  <path d="M14 32 L8 38" stroke="#bf94ff" stroke-width="2.5" stroke-linecap="round"/>
  <path d="M16 34 L11 40" stroke="#bf94ff" stroke-width="2.5" stroke-linecap="round"/>
  <!-- Right leg pair -->
  <path d="M34 32 L40 38" stroke="#bf94ff" stroke-width="2.5" stroke-linecap="round"/>
  <path d="M32 34 L37 40" stroke="#bf94ff" stroke-width="2.5" stroke-linecap="round"/>
  <!-- Eyes -->
  <circle cx="20" cy="26" r="2" fill="#0e0e10"/>
  <circle cx="28" cy="26" r="2" fill="#0e0e10"/>
  <!-- Eye shine -->
  <circle cx="20.7" cy="25.3" r="0.7" fill="white"/>
  <circle cx="28.7" cy="25.3" r="0.7" fill="white"/>
  <!-- Mouth / smile -->
  <path d="M21 30 Q24 33 27 30" stroke="#0e0e10" stroke-width="1.5" stroke-linecap="round" fill="none"/>
</svg>
